<svg width="22" height="28" viewBox="0 0 22 28" fill="none" xmlns="http://www.w3.org/2000/svg">
<path d="M10.765 28C9.655 28 4.384 21.484 3.093 19.387C1.164 16.254 0 14.362 0 10.765C0 7.90994 1.13417 5.17182 3.153 3.153C5.17182 1.13417 7.90994 0 10.765 0C13.6201 0 16.3582 1.13417 18.377 3.153C20.3958 5.17182 21.53 7.90994 21.53 10.765C21.53 14.217 20.38 16.082 18.474 19.172L18.342 19.387C17.012 21.543 11.853 28 10.765 28ZM10.765 5.383C9.70034 5.383 8.6596 5.69871 7.77437 6.2902C6.88914 6.88169 6.19918 7.7224 5.79176 8.70601C5.38433 9.68963 5.27773 10.772 5.48543 11.8162C5.69314 12.8604 6.20582 13.8195 6.95864 14.5724C7.71147 15.3252 8.67063 15.8379 9.71483 16.0456C10.759 16.2533 11.8414 16.1467 12.825 15.7392C13.8086 15.3318 14.6493 14.6419 15.2408 13.7566C15.8323 12.8714 16.148 11.8307 16.148 10.766C16.1464 9.33883 15.5788 7.97056 14.5696 6.9614C13.5604 5.95223 12.1922 5.38459 10.765 5.383Z" fill="#0080CA"/>
</svg>
