<svg width="33" height="32" viewBox="0 0 33 32" fill="none" xmlns="http://www.w3.org/2000/svg">
<path d="M14.8803 3.47125C15.3377 2.06377 17.3289 2.06377 17.7863 3.47125L20.1068 10.6119C20.3113 11.2414 20.8979 11.6675 21.5597 11.6676L29.068 11.6678C30.5479 11.6679 31.1632 13.5617 29.966 14.4316L23.8918 18.8451C23.3564 19.2341 23.1323 19.9236 23.3368 20.5531L25.6568 27.694C26.114 29.1015 24.5031 30.2719 23.3058 29.402L17.2313 24.989C16.6958 24.6 15.9708 24.6 15.4354 24.989L9.3609 29.402C8.16357 30.2719 6.55265 29.1015 7.00992 27.694L9.32983 20.5531C9.53432 19.9236 9.31028 19.2341 8.77486 18.8451L2.70072 14.4316C1.50345 13.5617 2.11877 11.6679 3.59871 11.6678L11.107 11.6676C11.7688 11.6675 12.3554 11.2414 12.5599 10.6119L14.8803 3.47125Z" fill="#FFCC30" stroke="#FFCC30" stroke-width="3.05556"/>
</svg>
