<svg width="54" height="54" viewBox="0 0 54 54" fill="none" xmlns="http://www.w3.org/2000/svg">
<mask id="mask0_412_1170" style="mask-type:alpha" maskUnits="userSpaceOnUse" x="0" y="0" width="54" height="54">
<g clip-path="url(#clip0_412_1170)">
<path d="M36 49.5C38.4853 49.5 40.5 47.4853 40.5 45C40.5 42.5147 38.4853 40.5 36 40.5C33.5147 40.5 31.5 42.5147 31.5 45C31.5 47.4853 33.5147 49.5 36 49.5Z" fill="black"/>
<path d="M13.5 49.5C15.9853 49.5 18 47.4853 18 45C18 42.5147 15.9853 40.5 13.5 40.5C11.0147 40.5 9 42.5147 9 45C9 47.4853 11.0147 49.5 13.5 49.5Z" fill="black"/>
<path d="M49.4991 15.75V14.58C49.4991 10.26 46.1691 6.75 41.9616 6.75C38.2266 6.75 36.2466 9.6075 34.8066 11.3175L15.0066 34.5375C13.7691 36 14.8041 38.25 16.7166 38.25H33.7491C36.2241 38.25 38.2491 36.225 38.2491 33.75V14.1075C39.5541 12.5775 40.4316 11.25 41.9616 11.25C43.6941 11.25 44.9991 12.735 44.9991 14.58V15.75H49.4991Z" fill="black"/>
<path d="M32.1741 9.225C29.3166 7.65 26.0091 6.75 22.4991 6.75C18.0666 6.75 13.9716 8.19 10.6191 10.62L21.6216 21.6225L32.1741 9.225Z" fill="black"/>
</g>
</mask>
<g mask="url(#mask0_412_1170)">
<rect x="-7" y="-9" width="67" height="67" fill="#111111"/>
</g>
<defs>
<clipPath id="clip0_412_1170">
<rect width="54" height="54" fill="white"/>
</clipPath>
</defs>
</svg>
