<svg width="56" height="28" viewBox="0 0 56 28" fill="none" xmlns="http://www.w3.org/2000/svg">
<rect width="56" height="28" rx="4" fill="#0080CA"/>
<path d="M25.8945 7.41211V12.375H27.8633V13.4551H25.8945V19.6621H24.6094V7.41211H25.8945ZM16.2832 10.3926V9.32617H19.3047V7.57617H20.6035V9.32617H23.543V10.3926H16.2832ZM16.9121 14.1387C16.9121 12.4707 18.1973 11.2949 19.9609 11.2949C21.7178 11.2949 23.0029 12.4707 23.0098 14.1387C23.0029 15.8203 21.7178 16.9893 19.9609 16.9961C18.1973 16.9893 16.9121 15.8203 16.9121 14.1387ZM18.1562 14.1387C18.1494 15.2051 18.915 15.916 19.9609 15.9023C21 15.916 21.7588 15.2051 21.7656 14.1387C21.7588 13.0928 21 12.3682 19.9609 12.3613C18.915 12.3682 18.1494 13.0928 18.1562 14.1387ZM32.6484 11.3496C32.6484 13.2363 33.8037 15.2324 35.6289 16.1074L34.8906 17.0918C33.5576 16.4629 32.5527 15.1846 32.0332 13.6875C31.4932 15.3076 30.4268 16.6611 29.0254 17.3105L28.3008 16.3125C30.167 15.458 31.3701 13.3662 31.377 11.3496V10.543H28.6699V9.50391H31.3633V7.6582H32.6758V9.50391H35.3418V10.543H32.6484V11.3496ZM36.6953 19.6621V7.41211H37.9941V12.3477H39.9629V13.4414H37.9941V19.6621H36.6953Z" fill="white"/>
</svg>
