<svg width="42" height="50" viewBox="0 0 42 50" fill="none" xmlns="http://www.w3.org/2000/svg">
<path fill-rule="evenodd" clip-rule="evenodd" d="M0 36.5229C0 38.8186 1.01742 40.8796 2.60878 42.3144V46.958C2.60878 48.3928 3.78273 49.5668 5.21756 49.5668H7.82634C9.26116 49.5668 10.4351 48.3928 10.4351 46.958V44.3492H31.3053V46.958C31.3053 48.3928 32.4793 49.5668 33.9141 49.5668H36.5229C37.9577 49.5668 39.1317 48.3928 39.1317 46.958V42.3144C40.723 40.8796 41.7405 38.8186 41.7405 36.5229V10.4351C41.7405 1.30439 32.401 0 20.8702 0C9.33943 0 0 1.30439 0 10.4351V36.5229ZM11.6677 5.86925C11.6677 5.14885 12.2517 4.56486 12.9721 4.56486H29.9291C30.6495 4.56486 31.2335 5.14885 31.2335 5.86925V7.17364C31.2335 7.89403 30.6495 8.47803 29.9291 8.47803H12.9721C12.2517 8.47803 11.6677 7.89403 11.6677 7.17364V5.86925ZM7.10233 12.3912C6.38194 12.3912 5.79794 12.9752 5.79794 13.6956V26.7395C5.79794 27.4599 6.38194 28.0439 7.10233 28.0439H35.7989C36.5193 28.0439 37.1033 27.4599 37.1033 26.7395V13.6956C37.1033 12.9752 36.5193 12.3912 35.7989 12.3912H7.10233ZM37.1033 34.8919C37.1033 36.5128 35.7893 37.8268 34.1684 37.8268C32.5475 37.8268 31.2335 36.5128 31.2335 34.8919C31.2335 33.271 32.5475 31.957 34.1684 31.957C35.7893 31.957 37.1033 33.271 37.1033 34.8919ZM8.73282 37.8268C10.3537 37.8268 11.6677 36.5128 11.6677 34.8919C11.6677 33.271 10.3537 31.957 8.73282 31.957C7.11193 31.957 5.79794 33.271 5.79794 34.8919C5.79794 36.5128 7.11193 37.8268 8.73282 37.8268Z" fill="white"/>
</svg>
