<svg width="56" height="28" viewBox="0 0 56 28" fill="none" xmlns="http://www.w3.org/2000/svg">
<rect width="56" height="28" rx="4" fill="#34C34D"/>
<path d="M22.5996 8.12305C22.6064 9.58594 24.5615 10.9941 26.8926 11.2812L26.4141 12.3066C24.459 12.0195 22.7363 11.0557 21.9434 9.72949C21.1641 11.0693 19.4414 12.0195 17.4727 12.3066L16.9668 11.2812C19.3184 10.9941 21.2666 9.61328 21.2734 8.12305V7.61719H22.5996V8.12305ZM16.3516 14.2344V13.1953H27.5215V14.2344H16.3516ZM17.6777 17.4609C17.6777 16.0459 19.2637 15.2734 21.9297 15.2734C24.5615 15.2734 26.1475 16.0459 26.1543 17.4609C26.1475 18.8623 24.5615 19.6553 21.9297 19.6621C19.2637 19.6553 17.6777 18.8623 17.6777 17.4609ZM18.9902 17.4609C18.9834 18.2334 20.0566 18.6504 21.9297 18.6367C23.7754 18.6504 24.8555 18.2334 24.8555 17.4609C24.8555 16.6953 23.7754 16.2715 21.9297 16.2715C20.0566 16.2715 18.9834 16.6953 18.9902 17.4609ZM32.6484 11.3496C32.6484 13.2363 33.8037 15.2324 35.6289 16.1074L34.8906 17.0918C33.5576 16.4629 32.5527 15.1846 32.0332 13.6875C31.4932 15.3076 30.4268 16.6611 29.0254 17.3105L28.3008 16.3125C30.167 15.458 31.3701 13.3662 31.377 11.3496V10.543H28.6699V9.50391H31.3633V7.6582H32.6758V9.50391H35.3418V10.543H32.6484V11.3496ZM36.6953 19.6621V7.41211H37.9941V12.3477H39.9629V13.4414H37.9941V19.6621H36.6953Z" fill="white"/>
</svg>
