<svg width="32" height="32" viewBox="0 0 32 32" fill="none" xmlns="http://www.w3.org/2000/svg">
<path d="M14.5464 3.47125C15.0037 2.06377 16.995 2.06377 17.4523 3.47125L19.7728 10.6119C19.9773 11.2414 20.5639 11.6675 21.2257 11.6676L28.734 11.6678C30.2139 11.6679 30.8292 13.5617 29.632 14.4316L23.5578 18.8451C23.0224 19.2341 22.7984 19.9236 23.0029 20.5531L25.3228 27.6939C25.78 29.1015 24.1691 30.2719 22.9718 29.402L16.8973 24.989C16.3619 24.6 15.6368 24.6 15.1014 24.989L9.02691 29.402C7.82959 30.2719 6.21866 29.1015 6.67593 27.694L8.99584 20.5531C9.20034 19.9236 8.97629 19.2341 8.44087 18.8451L2.36673 14.4316C1.16947 13.5617 1.78479 11.6679 3.26472 11.6678L10.773 11.6676C11.4348 11.6675 12.0214 11.2414 12.2259 10.6119L14.5464 3.47125Z" stroke="#9B9B9B" stroke-width="3.05556"/>
</svg>
