<svg width="90" height="88" viewBox="0 0 90 88" fill="none" xmlns="http://www.w3.org/2000/svg">
<path fill-rule="evenodd" clip-rule="evenodd" d="M18.9985 29.0635C18.9985 15.7604 30.736 5.00098 45.2485 5.00098C59.761 5.00098 71.4985 15.7604 71.4985 29.0635C71.4985 45.4053 49.9744 68.7937 45.9072 73.0673C45.5465 73.4463 44.9505 73.4463 44.5899 73.0673C40.5227 68.7937 18.9985 45.4053 18.9985 29.0635ZM69.7098 65.5H58.5351L60.9964 62.5H69.7098C71.0823 62.5 72.3282 63.3022 72.8961 64.5517L81.0779 82.5517C82.1313 84.869 80.4372 87.5 77.8916 87.5H13.1037C10.5582 87.5 8.86404 84.869 9.91738 82.5517L18.0992 64.5517C18.6671 63.3022 19.913 62.5 21.2855 62.5H28.9989L31.4602 65.5H21.2855C21.0894 65.5 20.9114 65.6146 20.8303 65.7931L12.6485 83.7931C12.498 84.1241 12.74 84.5 13.1037 84.5H77.8916C78.2553 84.5 78.4973 84.1242 78.3468 83.7931L70.165 65.7931C70.0839 65.6146 69.9059 65.5 69.7098 65.5Z" fill="white"/>
<path fill-rule="evenodd" clip-rule="evenodd" d="M33.002 42.3838C33.002 43.7279 33.5976 44.9345 34.5293 45.7745V48.4932C34.5293 49.3332 35.2166 50.0205 36.0566 50.0205H37.584C38.424 50.0205 39.1113 49.3332 39.1113 48.4932V46.9658H51.3301V48.4932C51.3301 49.3332 52.0174 50.0205 52.8574 50.0205H54.3848C55.2248 50.0205 55.9121 49.3332 55.9121 48.4932V45.7745C56.8438 44.9345 57.4395 43.7279 57.4395 42.3838V27.1104C57.4395 21.7646 51.9716 21.001 45.2207 21.001C38.4698 21.001 33.002 21.7646 33.002 27.1104V42.3838ZM39.8329 24.4376C39.8329 24.0159 40.1749 23.674 40.5966 23.674H50.5244C50.9461 23.674 51.288 24.0159 51.288 24.4376V25.2013C51.288 25.6231 50.9461 25.965 50.5244 25.965H40.5966C40.1749 25.965 39.8329 25.6231 39.8329 25.2013V24.4376ZM37.1592 28.256C36.7374 28.256 36.3955 28.5979 36.3955 29.0196V36.6564C36.3955 37.0781 36.7374 37.42 37.1592 37.42H53.96C54.3817 37.42 54.7237 37.0781 54.7237 36.6564V29.0196C54.7237 28.5979 54.3817 28.256 53.96 28.256H37.1592ZM54.7227 41.4296C54.7227 42.3786 53.9534 43.1479 53.0044 43.1479C52.0554 43.1479 51.2862 42.3786 51.2862 41.4296C51.2862 40.4807 52.0554 39.7114 53.0044 39.7114C53.9534 39.7114 54.7227 40.4807 54.7227 41.4296ZM38.1138 43.1479C39.0628 43.1479 39.832 42.3786 39.832 41.4296C39.832 40.4807 39.0628 39.7114 38.1138 39.7114C37.1648 39.7114 36.3955 40.4807 36.3955 41.4296C36.3955 42.3786 37.1648 43.1479 38.1138 43.1479Z" fill="#003F63"/>
</svg>
