<svg width="64" height="28" viewBox="0 0 64 28" fill="none" xmlns="http://www.w3.org/2000/svg">
<path d="M2.41406 22.5352C4.60144 21.2817 9.31061 17.144 10.6482 10.6209" stroke="#003F63" stroke-width="4.34483" stroke-linecap="round"/>
<path d="M18.9883 22.5352C16.8009 21.2817 12.0917 17.144 10.7541 10.6209" stroke="#003F63" stroke-width="4.34483" stroke-linecap="round"/>
<path d="M2.41406 7.48975C5.12287 8.72837 12.198 10.4624 18.8279 7.48975" stroke="#0091E6" stroke-width="4.34483" stroke-linecap="round"/>
<circle cx="10.8619" cy="2.65532" r="2.17241" fill="#34C34D"/>
<path d="M25.1035 4.82764V25.1035" stroke="#003F63" stroke-width="4.34483" stroke-linecap="round"/>
<path d="M25.1035 14.4829L28.0001 14.4829" stroke="#003F63" stroke-width="4.34483" stroke-linecap="round"/>
<path d="M35.7246 22.5352C37.912 21.2817 42.6212 17.144 43.9588 10.6209" stroke="#003F63" stroke-width="4.34483" stroke-linecap="round"/>
<path d="M52.2988 22.5352C50.1114 21.2817 45.4023 17.144 44.0647 10.6209" stroke="#003F63" stroke-width="4.34483" stroke-linecap="round"/>
<path d="M35.7246 7.48975C38.4334 8.72837 45.5085 10.4624 52.1384 7.48975" stroke="#0091E6" stroke-width="4.34483" stroke-linecap="round"/>
<circle cx="44.1724" cy="2.65532" r="2.17241" fill="#34C34D"/>
<path d="M58.4141 4.82764V25.1035" stroke="#003F63" stroke-width="4.34483" stroke-linecap="round"/>
<path d="M58.4141 14.4829L61.3106 14.4829" stroke="#003F63" stroke-width="4.34483" stroke-linecap="round"/>
</svg>
